<svg xmlns="http://www.w3.org/2000/svg" width="1240" height="1240"><path d="M1021.197 3.499c-2.916.818-6.291 2.005-7.5 2.638-4.077 2.135-18.117 13.551-31.197 25.366-23.137 20.899-37.075 30.042-52 34.114-9.225 2.516-31.334 3.002-41.65.916-15.728-3.181-32.798-9.301-63.234-22.671-21.449-9.422-31.956-12.863-39.264-12.858-7.44.004-11.017 2.119-14.514 8.58-4.101 7.574-5.208 15.431-4.542 32.231 1.034 26.085 5.082 42.201 22.599 89.97 16.943 46.205 20.557 60.685 19.924 79.818-.371 11.211-.639 12.589-3.637 18.678-8.624 17.519-20.168 22.667-66.682 29.737-88.694 13.482-135.751 25.734-184.829 48.126C470.623 376.489 403.511 445.403 361.989 536c-14.065 30.688-22.051 53.388-40.984 116.5-25.421 84.736-27.873 89.565-60.95 120.042-46.364 42.72-78.33 61.529-151.253 88.997-43.493 16.383-61.372 24.409-73.218 32.866-10.401 7.426-21.206 19.615-25.713 29.007-4.967 10.353-8.048 24.629-8.218 38.088-.151 12.009 1.242 18.25 6.579 29.458 3.41 7.163 5.576 10.007 14.147 18.578 5.567 5.566 13.352 12.236 17.301 14.822 15.107 9.894 41.135 21.239 55.796 24.32 10.166 2.136 24.489 1.487 28.203-1.278 5.26-3.916 4.748-4.743-15.449-24.989-20.274-20.321-28.359-30.608-30.883-39.289-2.01-6.915-1.35-15.235 1.68-21.174 5.85-11.469 25.537-26.564 49.973-38.319 14.198-6.83 32.311-13.621 99.465-37.288 59.769-21.066 76.208-25.477 95.535-25.637 17.167-.142 28.184 3.714 44.701 15.648l9.202 6.648h56.298c30.965-.001 117.452-.3 192.194-.667l135.894-.665-.628-11.584c-1.374-25.334-7.047-34.721-24.183-40.017-8.712-2.693-18.078-3.875-43.868-5.538-12.59-.812-23.124-1.71-23.41-1.996-1.063-1.062 2.204-9.358 8.278-21.022 25.727-49.403 60.196-93.378 82.804-105.639 6.204-3.364 6.247-3.372 19.218-3.246 20 .194 31.498 3.722 41.161 12.629 8.702 8.021 10.949 14.32 14.358 40.245 2.956 22.487 5.038 29.981 12.503 45 10.048 20.217 22.209 36.171 42.989 56.392 20.685 20.13 42.411 34.814 61.304 41.434 7.263 2.545 10.24 3.051 18.185 3.087 7.877.036 10.199-.327 13.595-2.126 7.411-3.927 14.173-13.453 16.853-23.747 1.962-7.533 1.951-10.833-.056-17.593-1.496-5.038-3.16-6.957-23.774-27.432-28.05-27.86-38.943-42.148-47.806-62.705-10.643-24.687-15.292-62.185-12.852-103.669 3.321-56.456 15.441-95.038 41.355-131.641 5.04-7.119 15.168-18.21 35.159-38.5 37.323-37.882 45.085-47.096 53.013-62.93 6.358-12.7 8.613-23.712 9.231-45.07.781-26.994-.965-40.476-8.838-68.269-6.377-22.507-8.115-31.927-8.255-44.731-.25-22.98 5.755-35.578 28.438-59.656 14.013-14.876 16.317-19.32 16.762-32.344.289-8.471-.388-13.036-6.248-42.139-3.615-17.952-8.354-45.177-10.531-60.5-5.872-41.334-8.128-50.125-14.745-57.449-6.3-6.974-20.552-10.37-31.104-7.413m-87.506 1018.143c-.38.38-.691 15.329-.691 33.219v32.528l-2.527-3.425c-5.589-7.576-15.838-11.964-27.944-11.964-14.293 0-25.122 4.604-34.557 14.689-13.665 14.607-19.284 39.249-14.391 63.103 3.281 15.996 12.914 29.441 24.887 34.736 17.542 7.758 38.428 4.167 49.886-8.577l4.646-5.167V1186h33.012l-.256-82.25-.256-82.25-15.559-.274c-8.557-.151-15.87.036-16.25.416m-715.194 9.512c-.283.74-.398 35.771-.256 77.846l.259 76.5 36-.015c31.646-.014 36.776-.234 42.42-1.822 13.689-3.851 25.211-11.975 30.335-21.39 7.371-13.544 7.495-30.788.302-42.182-4.933-7.814-15.974-15.258-24.807-16.724-2.062-.343-3.742-.903-3.733-1.245.009-.342 2.552-1.72 5.649-3.061 7.385-3.199 15.628-11.299 19.084-18.752 3.637-7.843 3.78-19.242.34-27.023-4.227-9.56-14.126-16.794-28.59-20.892-8.19-2.32-76.172-3.415-77.003-1.24M1046 1043v13h13v104h-13v26h60v-26h-13v-104h13v-26h-60v13m67.439-11.702c-.277.722-.377 6.913-.221 13.757l.282 12.445 22.25.269 22.25.269V1186h33v-127.962l22.25-.269 22.25-.269v-27l-60.778-.258c-49.444-.209-60.873-.013-61.283 1.056M252 1074.1v19.101l12.75-.351c11.656-.32 13.137-.577 17.261-3.002 6.145-3.613 8.989-8.86 8.989-16.586 0-6.793-2.421-11.439-7.503-14.399-3.816-2.223-13.812-3.846-23.747-3.855L252 1055v19.1m138.348-.68c-8.203 1.989-16.032 6.353-22.859 12.74-12.519 11.71-17.418 23.11-18.196 42.34-.843 20.849 3.646 34.323 15.099 45.321 11.203 10.758 21.925 14.498 41.608 14.512 13.701.011 24.748-1.921 33.75-5.901l5.25-2.322v-12.138c0-6.676-.337-11.967-.75-11.757-13.744 6.987-22.893 9.204-35.033 8.49-14.667-.863-24.056-7.58-26.741-19.129L381.18 1140H454v-12.34c0-19.813-3.73-31.112-13.84-41.92-5.177-5.535-15.941-11.238-24.046-12.741-7.155-1.327-19.385-1.127-25.766.421m238.152.079c-13.58 3.034-20.946 7.094-29.899 16.48-20.152 21.128-19.492 62.372 1.326 82.87 10.803 10.636 24.278 15.479 43.073 15.479 19.04 0 32.314-4.843 43.51-15.874 11.787-11.614 17.097-27.026 16.178-46.954-.786-17.052-5.469-28.132-16.278-38.511-10.711-10.286-24.17-15.011-42.41-14.892-5.225.034-12.2.665-15.5 1.402m152.336.356c-7.877 2.608-11.986 5.37-17.797 11.961l-5.011 5.684-.014-8.25L758 1075H724.983l.259 55.25.258 55.25 16.25.275 16.25.275.024-33.275c.014-19.025.464-35.202 1.05-37.775 1.373-6.031 5.051-11.392 10.112-14.741 3.405-2.254 5.28-2.758 10.241-2.754 10.871.009 16.401 5.537 18.504 18.497.58 3.574 1.057 20.785 1.061 38.248L799 1186h32l-.017-39.25c-.019-42.39-.543-48.044-5.319-57.381-3.221-6.295-8.886-11.705-15.164-14.481-7.079-3.129-21.783-3.641-29.664-1.033m-319.312 4.895c.83 2.063 10.893 26.915 22.363 55.228l20.854 51.478-3.349 7.94c-4.526 10.732-7.493 14.948-12.053 17.124-4.761 2.272-14.358 2.347-19.589.154l-3.75-1.572v26.717l7.221 1.218c10.858 1.832 21.418.788 29.287-2.894 10.937-5.118 21.665-17.137 27.661-30.992 1.57-3.629 29.932-78.151 46.202-121.401l2.539-6.75h-32.531l-11.293 35.583c-6.211 19.571-11.721 37.233-12.244 39.25-1.713 6.606-2.069 6.733-3.268 1.167-.652-3.025-6.11-21.358-12.13-40.739l-10.944-35.239-18.242-.011-18.242-.011 1.508 3.75m-66.024 17.823c-6.397 3.326-11.602 10.421-13.337 18.177l-.95 4.25h21.393c11.767 0 21.394-.367 21.394-.816 0-.449-.481-3.487-1.07-6.75-1.314-7.288-4.629-12.589-9.242-14.778-4.45-2.111-14.203-2.156-18.188-.083m240.454 1.729c-12.9 3.647-20.306 18.246-18.595 36.655 1.776 19.106 9.929 28.018 25.641 28.028 8.9.005 13.343-1.433 17.868-5.785 6-5.771 8.384-13.293 8.461-26.7.035-6.05-.463-12.807-1.108-15.015-2.003-6.865-6.558-12.986-11.413-15.336-5.587-2.705-14.903-3.53-20.854-1.847m267.81-.365c-4.739 1.528-9.394 4.921-12.084 8.809-4.845 7.002-6.019 11.781-6.079 24.754-.048 10.437.242 12.651 2.225 17 1.255 2.75 3.495 6.294 4.978 7.876 7.936 8.466 23.065 8.859 31.539.821 11.496-10.905 12.868-41.764 2.358-53.032-4.985-5.344-16.218-8.394-22.937-6.228M252 1140.111v21.111l14.25-.426c15.483-.462 19.833-1.606 25.089-6.599 4.367-4.148 5.993-8.088 6.064-14.697.107-9.874-5.148-16.67-15.005-19.407-2.144-.595-9.86-1.084-17.148-1.087L252 1119v21.111" fill="undefined" fill-rule="evenodd"/></svg>